<?xml version="1.0" encoding="iso-8859-1" ?>
<svg width="276" height="46" viewBox="0 0 276 46" fill="none" xmlns="http://www.w3.org/2000/svg">
<path d="M20.5565 9.58703H20.7365L24.8262 22.6346H33.6045L27.051 2.1815C26.57 0.665247 25.4281 0.179688 24.1003 0.179688H17.1927C15.8678 0.179688 14.7259 0.665247 14.242 2.1815L7.69141 22.6346H16.4668L20.5565 9.58703Z" fill="white"/>
<path d="M33.9626 23.9683H24.7063L20.7376 31.7372H20.5576L16.5918 23.9683H7.33545L0 45.6337H9.07637L13.1631 33.0717L17.9137 40.7781C18.1527 41.076 18.3917 41.2637 19.2976 41.2637H22.0624C22.9476 41.2637 23.2043 41.085 23.4434 40.7781L28.1409 33.0717L32.2306 45.6337H41.3069L33.9626 23.9683Z" fill="white"/>
<path fill-rule="evenodd" clip-rule="evenodd" d="M68.08 20.179C72.0428 20.179 75.5453 18.3023 75.5453 12.565V0.271079H71.8126V12.7318C71.8126 15.9132 70.5733 17.0303 68.0682 17.0303C65.5631 17.0303 64.3356 15.9103 64.3356 12.7318V0.271079H60.6177V12.5679C60.6177 18.3053 64.1202 20.179 68.08 20.179ZM86.9173 5.49307C85.2738 5.49307 83.8486 6.41951 82.6063 7.28041V5.76415H79.5346V19.9109H82.8778V9.71118C83.2663 9.25593 83.7453 8.88811 84.2836 8.63154C84.8218 8.37496 85.4075 8.23535 86.0026 8.22174C87.1357 8.22174 87.7287 8.81752 87.7287 10.724V19.9109H91.0689V10.2265C91.0689 7.34296 89.7205 5.49307 86.9173 5.49307ZM98.2126 0H94.8695V3.15167H98.2126V0ZM98.2126 5.76415H94.8695V19.9109H98.2126V5.76415ZM107.968 19.9109L111.984 5.76415H108.643L106.283 15.3413H106.227L103.91 5.76415H100.558L104.465 19.9109H107.968ZM118.829 20.182C121.523 20.182 123.409 19.3121 124.701 17.2984L122.27 15.7762C121.435 16.7533 120.703 17.4623 119.145 17.4623C117.587 17.4623 116.286 16.3184 116.233 13.3812H124.692V11.996C124.692 8.59708 122.647 5.46328 118.98 5.49307C115.182 5.49307 112.892 8.34983 112.892 12.839C112.892 17.3282 115.188 20.179 118.829 20.179V20.182ZM118.935 7.99534C120.552 7.99534 121.576 9.13924 121.629 11.0964H116.241C116.295 9.13924 117.318 7.99534 118.935 7.99534ZM130.579 11.3138C130.579 10.9623 132.034 9.02902 133.704 9.02902C133.901 9.02268 134.098 9.03165 134.294 9.05583V5.48116C132.299 5.53478 131.166 6.48802 130.361 8.16216H130.304V5.76415H127.236V19.9109H130.576L130.579 11.3138ZM140.794 17.6797C139.366 17.6797 138.313 16.7294 137.531 15.6422L135.294 17.3252C135.864 18.2193 136.652 18.9513 137.582 19.4513C138.511 19.9513 139.552 20.2029 140.605 20.182C143.556 20.182 145.754 18.8772 145.754 15.9371C145.754 10.7717 138.746 11.8053 138.746 9.38351C138.746 8.54048 139.337 7.99534 140.635 7.99534C141.685 7.99534 142.574 8.75794 143.246 9.48479L145.35 7.6349C144.137 6.19311 142.275 5.48414 140.417 5.48414C137.994 5.48414 135.784 6.95273 135.784 9.59203C135.784 14.5161 142.789 13.6463 142.789 16.0652C142.786 17.0273 141.977 17.6797 140.794 17.6797ZM152.084 5.76415H148.743V19.9109H152.072L152.084 5.76415ZM152.084 0H148.743V3.15464H152.072L152.084 0ZM160.629 20.179C162.14 20.179 163.243 19.5534 164.429 18.3917L164.592 19.9169H167.415V0.271079H164.075V7.07189H164.022C163.349 6.17822 161.756 5.49307 160.626 5.49307C157.017 5.49307 155.02 8.9754 155.02 12.4577C155.023 16.8635 156.908 20.179 160.629 20.179ZM161.49 8.20982C162.57 8.20982 163.405 8.78177 164.078 9.40138V16.2022C163.379 16.7443 162.919 17.4533 161.49 17.4533C159.499 17.4533 158.366 15.8209 158.366 12.8301C158.366 9.83928 159.496 8.2128 161.488 8.2128L161.49 8.20982ZM178.014 19.9079H181.284C181.084 19.2473 180.993 18.5578 181.015 17.8674V11.2066C181.015 6.96167 179.398 5.57648 175.624 5.49307C173.579 5.43945 171.26 6.58037 170.399 8.07875L172.553 9.73799C173.199 8.84433 174.063 7.99534 175.624 7.99534C176.805 7.99534 177.69 8.59112 177.69 9.68139V10.873C172.216 11.5402 169.629 13.2173 169.629 16.4256C169.629 18.3589 170.894 20.182 173.426 20.182C175.179 20.182 176.445 19.613 177.793 18.6925L178.014 19.9079ZM177.666 16.1813C176.964 16.7771 175.645 17.6708 174.595 17.6708C173.65 17.6708 172.978 17.075 172.978 16.0115C172.978 14.0246 175.43 13.5629 177.666 13.128V16.1813ZM189.085 20.179C190.593 20.179 191.7 19.5534 192.883 18.3917L193.045 19.9169H195.878V0.271079H192.535V7.07189H192.496C191.821 6.17822 190.233 5.49307 189.1 5.49307C185.489 5.49307 183.494 8.9754 183.494 12.4577C183.482 16.8635 185.368 20.179 189.085 20.179ZM189.95 8.20982C191.024 8.20982 191.859 8.78177 192.535 9.40138V16.2022C191.833 16.7443 191.375 17.4533 189.95 17.4533C187.952 17.4533 186.822 15.8209 186.822 12.8301C186.822 9.83928 187.952 8.2128 189.95 8.2128V8.20982ZM207.628 15.7732C206.793 16.7503 206.064 17.4593 204.5 17.4593C202.936 17.4593 201.644 16.3064 201.591 13.3812H210.053V11.996C210.053 8.59708 208.005 5.46328 204.341 5.49307C200.54 5.49307 198.25 8.34983 198.25 12.839C198.25 17.3282 200.54 20.179 204.178 20.179C206.872 20.179 208.761 19.3092 210.053 17.2954L207.628 15.7732ZM204.299 7.99534C205.913 7.99534 206.937 9.13924 206.993 11.0964H201.591C201.644 9.13924 202.67 7.99534 204.299 7.99534ZM64.967 41.0312H71.1133L72.1874 45.2732H75.8817L70.3609 25.6125H65.7253L60.119 45.2732H63.8103L64.967 41.0312ZM68.0682 29.3868H68.1213L70.3019 37.9302H65.7785L68.0682 29.3868ZM81.9365 35.0735C82.3246 34.6184 82.803 34.2507 83.3408 33.9942C83.8786 33.7376 84.4637 33.5979 85.0584 33.584C86.1914 33.584 86.7845 34.1798 86.7845 36.0893V45.2821H90.107V35.5739C90.107 32.6903 88.7615 30.8405 85.9583 30.8405C84.3148 30.8405 82.8866 31.7669 81.6473 32.6278V31.1056H78.5816V45.2493H81.9247L81.9365 35.0735ZM96.8936 35.0735C97.283 34.6184 97.7625 34.2508 98.3012 33.9942C98.8399 33.7377 99.4259 33.5979 100.021 33.584C101.152 33.584 101.745 34.1798 101.745 36.0893V45.2821H105.097V35.5739C105.097 32.6903 103.751 30.8405 100.948 30.8405C99.3044 30.8405 97.9323 31.7669 96.9054 32.6278V25.6185H93.5652V45.2583H96.8936V35.0735ZM113.547 30.8553C109.75 30.8553 107.46 33.7121 107.46 38.2013C107.46 42.6905 109.75 45.5443 113.385 45.5443C116.082 45.5443 117.968 44.6744 119.26 42.6607L116.837 41.1385C116.014 42.1036 115.285 42.8186 113.713 42.8186C112.14 42.8186 110.856 41.6747 110.803 38.7345H119.26V37.3493C119.272 33.9415 117.227 30.8136 113.559 30.8405L113.547 30.8553ZM110.803 36.4616C110.856 34.5015 111.877 33.3576 113.494 33.3606C115.111 33.3636 116.135 34.5015 116.188 36.4616H110.803ZM129.838 35.3713V45.2464H133.187V35.0735C133.972 34.3406 135.129 33.5483 135.99 33.5483C137.203 33.6049 137.661 34.2304 137.661 35.3713V45.2464H141.001V35.0735C141.001 31.6984 139.009 30.8285 137.554 30.8285C135.238 30.8285 133.89 31.7222 132.733 32.8959C132.11 31.5375 130.738 30.8285 129.284 30.8285C127.368 30.8285 126.348 31.4571 125.079 32.6159V31.0937H122.025V45.2374H125.365V35.0735C126.147 34.3406 127.307 33.5483 128.168 33.5483C129.381 33.6168 129.838 34.2423 129.838 35.3713ZM144.474 25.6065V45.2464H147.088L147.466 43.7212C148.646 44.8919 149.756 45.5085 151.263 45.5085C154.984 45.5085 156.87 42.19 156.87 37.7842C156.87 34.3019 154.875 30.8196 151.263 30.8196C150.133 30.8196 148.543 31.5018 147.87 32.3984H147.814V25.6185L144.474 25.6065ZM150.402 33.5483C152.396 33.5483 153.527 35.1807 153.527 38.1745C153.527 41.1683 152.396 42.8186 150.402 42.8186C148.974 42.8186 148.516 42.1096 147.814 41.5645V34.7756C148.49 34.1321 149.325 33.5602 150.402 33.5602V33.5483ZM162.529 25.3355H159.186V28.4901H162.529V25.3355ZM159.186 45.2464H162.529V31.1145H159.186V45.2464ZM178.684 29.7978H178.737L183.054 45.2583H185.881L190.245 29.8098H190.304V45.2583H193.55V25.6185H188.268L184.497 39.3214H184.441L180.697 25.6185H175.453V45.2583H178.699L178.684 29.7978ZM202.455 30.8285C198.652 30.8285 196.362 33.6853 196.362 38.1745C196.362 42.6637 198.652 45.5174 202.455 45.5174C206.259 45.5174 208.542 42.6607 208.542 38.1745C208.542 33.6883 206.25 30.8405 202.455 30.8405V30.8285ZM202.455 42.8007C200.596 42.8007 199.705 41.3291 199.705 38.1745C199.705 35.0198 200.59 33.5483 202.455 33.5483C204.32 33.5483 205.202 35.0198 205.202 38.1745C205.202 41.3291 204.314 42.8186 202.455 42.8186V42.8007ZM213.827 33.5244H213.774V31.1026H210.702V45.2464H214.037V36.6642C214.037 36.3097 215.488 34.3794 217.158 34.3794C217.355 34.3737 217.553 34.3817 217.749 34.4032V30.8285C215.769 30.903 214.627 31.8473 213.827 33.5363V33.5244ZM224.042 45.5174C225.683 45.5174 227.111 44.594 228.35 43.7301V45.2553H231.425V31.1145H228.082V41.3291C227.693 41.7846 227.214 42.1525 226.675 42.4091C226.136 42.6657 225.55 42.8052 224.954 42.8186C223.821 42.8186 223.228 42.2228 223.228 40.3133V31.1145H219.891V40.7989C219.891 43.6795 221.239 45.5294 224.042 45.5294V45.5174ZM250.395 30.8285C248.079 30.8285 246.73 31.7222 245.574 32.8959C244.951 31.5375 243.582 30.8285 242.124 30.8285C240.212 30.8285 239.174 31.4571 237.92 32.6159V31.0937H234.877V45.2374H238.232V35.0735C239.011 34.3406 240.171 33.5483 241.033 33.5483C242.245 33.6049 242.706 34.2304 242.706 35.3713V45.2464H246.046V35.0735C246.828 34.3406 247.987 33.5483 248.849 33.5483C250.062 33.6049 250.516 34.2304 250.516 35.3713V45.2464H253.859V35.0735C253.845 31.7103 251.853 30.8405 250.395 30.8405V30.8285ZM260.315 43.7212C261.496 44.8919 262.608 45.5085 264.116 45.5085C267.834 45.5085 269.722 42.19 269.722 37.7842C269.722 34.3019 267.728 30.8196 264.116 30.8196C262.983 30.8196 261.392 31.5018 260.72 32.3984H260.658V25.6185H257.326V45.2583H259.941L260.315 43.7212ZM260.658 34.7756C261.33 34.147 262.169 33.584 263.245 33.584C265.237 33.584 266.37 35.2164 266.37 38.2102C266.37 41.204 265.246 42.8186 263.254 42.8186C261.823 42.8186 261.369 42.1096 260.667 41.5645L260.658 34.7756ZM276.001 25.3623H272.661V28.5169H276.001V25.3623ZM276.001 31.1294H272.661V45.2732H276.001V31.1294ZM49.9922 45.6932H50.4407V0.178734H49.9922V45.6932Z" fill="white"/>
</svg>
